<?xml version="1.0" standalone="no"?>
<!DOCTYPE svg PUBLIC "-//W3C//DTD SVG 20010904//EN"
 "http://www.w3.org/TR/2001/REC-SVG-20010904/DTD/svg10.dtd">
<svg version="1.0" xmlns="http://www.w3.org/2000/svg"
 width="384.000000pt" height="384.000000pt" viewBox="0 0 384.000000 384.000000"
 preserveAspectRatio="xMidYMid meet">

<g transform="translate(0.000000,384.000000) scale(0.100000,-0.100000)"
fill="#000000" stroke="none">
<path d="M1966 3601 c-14 -21 -43 -68 -64 -103 -21 -34 -62 -100 -90 -144
l-51 -82 142 2 c78 0 177 -3 220 -7 48 -6 77 -5 77 1 0 9 -19 44 -120 227 -15
28 -38 69 -50 93 -12 23 -26 44 -31 47 -4 3 -19 -12 -33 -34z"/>
<path d="M1396 3533 c-3 -15 -28 -112 -54 -215 -27 -104 -48 -188 -47 -188 2
0 27 11 56 24 82 36 165 63 258 85 46 11 85 22 88 24 2 3 -60 68 -139 145 -79
77 -146 143 -149 146 -4 4 -9 -6 -13 -21z"/>
<path d="M2451 3386 c-90 -73 -162 -137 -160 -142 2 -5 40 -19 84 -32 44 -13
131 -47 193 -77 110 -53 112 -53 112 -30 0 22 -57 390 -63 406 -1 4 -76 -53
-166 -125z"/>
<path d="M833 3264 c3 -10 15 -95 27 -189 12 -93 25 -185 28 -202 l7 -33 50
45 c66 60 190 153 250 188 26 16 44 32 39 36 -5 5 -92 43 -194 86 -102 42
-191 79 -199 82 -9 4 -12 0 -8 -13z"/>
<path d="M2945 3141 c-77 -32 -157 -66 -178 -75 l-39 -16 83 -61 c46 -34 118
-97 161 -140 l77 -77 6 31 c8 47 35 263 42 335 3 34 2 62 -3 61 -5 0 -72 -26
-149 -58z"/>
<path d="M1628 3143 c-72 -82 -6 -283 92 -283 32 0 74 44 66 70 -2 8 -9 29
-15 45 -6 17 -13 43 -16 58 -4 19 -16 33 -40 44 -33 16 -36 16 -53 0 -21 -22
-4 -37 34 -29 18 3 24 0 24 -13 0 -10 -7 -23 -17 -30 -22 -16 -10 -45 16 -38
27 7 41 -41 18 -64 -39 -39 -91 13 -103 102 -11 80 27 129 85 110 29 -9 26 9
-4 29 -32 21 -68 20 -87 -1z"/>
<path d="M1900 3040 c0 -65 -2 -71 -24 -82 -35 -15 -56 -4 -56 30 0 32 16 52
43 52 27 0 18 34 -10 38 -14 2 -32 -7 -48 -22 -54 -54 -17 -138 60 -138 24 0
44 -7 57 -20 15 -15 28 -19 49 -14 16 3 41 0 54 -6 21 -9 29 -9 42 4 19 20 8
42 -19 35 -19 -5 -20 -2 -13 85 6 70 4 92 -6 99 -21 12 -29 1 -29 -40 0 -78
-12 -129 -31 -134 -24 -6 -29 11 -29 98 0 69 -7 85 -36 85 -2 0 -4 -32 -4 -70z"/>
<path d="M1413 3080 c-13 -5 -23 -16 -23 -25 0 -17 31 -20 46 -5 18 18 60 -6
73 -41 17 -49 14 -66 -20 -90 -27 -19 -29 -23 -16 -37 13 -13 18 -13 38 2 31
21 34 20 47 -9 9 -20 9 -23 -4 -18 -8 3 -23 -2 -34 -12 -14 -13 -23 -14 -39
-6 -33 18 -39 76 -16 149 6 18 4 22 -13 22 -30 0 -52 -37 -52 -86 0 -52 34
-97 86 -114 29 -10 39 -9 62 6 14 10 42 18 62 18 31 1 35 4 38 29 3 21 -1 27
-17 27 -10 0 -21 -5 -23 -12 -3 -7 -20 30 -39 82 -29 80 -38 95 -64 105 -50
21 -69 24 -92 15z"/>
<path d="M2183 3074 c-4 -10 0 -22 9 -28 12 -9 13 -17 3 -51 -18 -60 16 -116
60 -99 12 5 14 0 9 -24 -7 -37 27 -68 58 -51 24 13 23 39 -2 39 -11 0 -20 1
-20 3 0 1 11 37 25 80 23 77 24 112 1 104 -6 -2 -17 -21 -24 -43 -13 -40 -44
-74 -68 -74 -11 0 -11 8 1 48 19 60 19 77 -1 96 -20 21 -43 20 -51 0z"/>
<path d="M2426 3066 c3 -9 15 -16 25 -16 11 0 25 -13 34 -31 16 -30 16 -31 -4
-24 -45 14 -49 -28 -5 -46 42 -15 26 -29 -34 -29 -68 0 -92 -18 -92 -67 0 -60
70 -110 119 -83 36 19 26 40 -18 40 -52 0 -71 8 -71 30 0 30 26 43 70 36 24
-4 49 -2 61 5 18 9 20 17 15 66 -3 30 -13 71 -23 91 -14 30 -24 38 -50 40 -26
3 -32 0 -27 -12z"/>
<path d="M2563 2896 c-78 -35 -86 -180 -11 -199 13 -4 28 -16 33 -29 14 -32
65 -38 65 -9 0 12 -7 21 -15 21 -21 0 -20 1 30 73 60 86 63 147 4 76 -25 -31
-28 -32 -68 -22 -40 11 -41 10 -41 -13 0 -13 6 -24 13 -24 29 -1 40 -16 27
-40 -11 -21 -13 -21 -22 -7 -5 10 -17 17 -28 17 -23 0 -35 33 -21 59 18 32 62
61 93 61 25 0 29 4 26 23 -4 27 -39 33 -85 13z"/>
<path d="M1187 2864 c-4 -4 7 -24 24 -46 32 -40 33 -60 2 -77 -15 -8 -23 -4
-38 20 -33 49 -100 51 -100 3 0 -22 34 -32 45 -14 11 18 43 -34 36 -58 -8 -25
16 -44 51 -40 24 3 28 7 25 30 -4 41 32 57 63 28 16 -15 30 -20 44 -15 27 8
43 37 30 56 -8 12 -12 11 -24 -6 -15 -19 -15 -19 -30 1 -70 101 -109 137 -128
118z"/>
<path d="M428 2814 c15 -29 131 -273 159 -333 l24 -55 39 72 c46 85 128 208
172 257 17 20 29 37 27 39 -2 1 -89 8 -194 15 -104 7 -201 15 -214 18 -20 5
-22 3 -13 -13z"/>
<path d="M1827 2779 c-354 -38 -669 -288 -790 -626 -63 -173 -73 -395 -28
-568 64 -242 226 -456 444 -588 57 -34 57 -34 29 -40 -16 -3 -107 -11 -203
-18 -234 -16 -595 -6 -754 20 -115 19 -237 45 -269 57 -14 6 -16 -28 -16 -315
l0 -320 43 -12 c361 -99 844 -105 1472 -19 83 11 182 25 220 30 39 5 138 18
220 29 361 49 453 56 765 56 239 0 329 -4 415 -17 115 -18 277 -51 308 -63 16
-7 17 11 15 315 l-3 323 -81 19 -80 19 -104 150 -103 150 -37 -88 c-20 -48
-45 -105 -56 -127 l-21 -38 -219 1 c-120 0 -264 -3 -319 -8 -55 -5 -102 -7
-104 -5 -2 2 17 24 43 49 409 410 373 1070 -78 1431 -195 156 -456 231 -709
203z m332 -50 c324 -74 591 -339 683 -676 30 -114 31 -334 0 -451 -26 -99 -87
-234 -139 -305 -60 -83 -173 -195 -207 -206 -17 -5 -60 -12 -96 -16 -36 -3
-132 -15 -213 -26 -81 -11 -158 -19 -170 -17 -12 1 -27 -1 -33 -4 -5 -4 -62
-14 -125 -22 -62 -9 -142 -20 -175 -26 -97 -16 -115 -13 -198 35 -299 170
-476 473 -476 814 1 411 273 773 672 891 138 42 319 45 477 9z m662 -1775 c11
-14 11 -18 -4 -29 -17 -12 -16 -15 12 -34 43 -31 49 -60 18 -87 l-26 -22 60
-27 c72 -32 109 -28 109 10 0 23 -4 25 -44 25 -26 0 -48 6 -56 15 -13 15 -12
16 38 31 10 3 10 9 2 23 -15 29 -12 62 8 77 23 18 47 17 63 -2 11 -13 8 -19
-16 -38 -38 -30 -26 -50 26 -43 22 3 42 1 45 -4 13 -22 24 -6 24 36 0 50 11
57 34 23 12 -16 16 -47 16 -115 0 -73 3 -91 13 -87 8 3 20 -2 27 -11 10 -12
10 -18 0 -30 -16 -20 -26 -19 -61 6 -26 19 -29 26 -29 80 l0 59 -31 0 c-26 0
-30 -3 -24 -17 17 -41 16 -62 -4 -82 -27 -27 -80 -27 -114 -1 -22 17 -26 18
-37 5 -18 -22 -55 -18 -87 9 -28 24 -27 50 1 27 8 -7 23 -11 33 -9 11 3 -2 11
-34 22 -55 18 -67 28 -78 64 -5 17 0 29 24 51 23 22 27 31 18 40 -9 10 -7 17
12 32 28 23 44 24 62 3z m-173 -6 c8 -8 12 -47 12 -111 0 -83 2 -98 14 -88 17
15 48 3 44 -17 -5 -25 -34 -37 -65 -26 -24 8 -28 16 -31 52 l-3 43 -37 -7
c-51 -9 -66 -24 -49 -48 12 -16 16 -17 36 -5 18 12 23 12 30 0 13 -21 3 -38
-27 -46 -23 -6 -32 -1 -58 29 -17 20 -40 36 -51 36 -24 0 -43 18 -43 42 0 24
29 38 58 27 29 -11 40 -5 53 28 13 36 -4 55 -39 42 -20 -8 -29 -6 -41 6 -15
15 -14 17 3 31 24 17 75 18 98 0 23 -17 39 -61 31 -83 -6 -16 -4 -16 15 1 16
14 22 30 22 63 0 44 7 52 28 31z m-470 -70 c8 -8 12 -46 12 -104 l0 -91 25 5
c20 3 25 0 25 -17 0 -28 -40 -44 -75 -31 -22 8 -25 16 -25 55 0 25 -4 45 -9
45 -23 0 -38 -13 -34 -29 11 -42 -57 -50 -92 -11 -34 38 -6 65 93 90 42 11 42
11 42 55 0 46 13 58 38 33z m1107 -23 c55 -58 55 -137 1 -151 -25 -6 -25 -7
-10 -36 11 -20 21 -28 36 -26 26 4 48 -26 31 -43 -18 -18 -60 4 -81 43 -9 17
-36 51 -59 74 -46 45 -50 53 -31 72 17 17 26 15 54 -15 23 -24 26 -25 41 -11
24 24 10 66 -25 74 -48 10 -52 13 -52 34 0 35 56 27 95 -15z m-2599 -27 c25
-23 51 -51 57 -62 7 -12 14 -68 17 -125 5 -99 6 -104 27 -106 29 -2 37 -10 30
-30 -8 -19 -46 -19 -74 0 -15 11 -23 28 -25 57 -3 39 -5 42 -46 53 -49 15 -61
5 -37 -31 11 -17 22 -23 34 -19 20 6 46 -18 36 -35 -16 -26 -95 11 -95 46 0 6
-21 33 -46 58 -46 47 -54 78 -22 84 10 2 29 -8 42 -23 22 -24 25 -24 40 -10 9
9 16 22 16 29 0 18 -30 42 -61 50 -30 7 -46 44 -23 53 22 8 72 -16 99 -49 17
-20 25 -42 25 -69 0 -40 22 -55 34 -23 21 54 -28 144 -79 144 -26 0 -50 24
-40 40 13 21 47 9 91 -32z m851 1 c16 -16 5 -39 -17 -39 -25 0 -35 18 -20 35
15 18 22 19 37 4z m431 -15 c31 -21 27 -48 -10 -78 l-33 -26 26 0 c34 0 49
-17 49 -56 0 -43 -47 -84 -97 -84 -42 0 -93 45 -93 83 0 34 40 79 89 102 23
10 41 22 41 27 0 11 -7 10 -30 -2 -15 -8 -21 -6 -30 10 -6 11 -8 25 -5 30 10
15 68 12 93 -6z m-220 -36 c8 -8 12 -46 12 -104 l0 -91 25 5 c33 6 34 -22 1
-43 -23 -16 -54 -11 -68 9 -10 14 -10 220 -1 229 9 10 17 9 31 -5z m-93 -14
c23 -9 45 -57 45 -99 0 -70 -59 -121 -106 -90 -13 8 -24 22 -24 30 0 17 16 20
25 5 18 -29 55 10 55 58 0 50 -11 65 -42 57 -30 -8 -45 9 -28 30 13 16 47 19
75 9z m-124 -24 c17 -10 19 -23 20 -113 0 -56 3 -96 6 -89 6 15 39 16 49 0 12
-19 -36 -50 -65 -43 -32 8 -41 21 -41 62 l0 31 -37 -10 c-48 -13 -57 -21 -48
-47 6 -21 35 -30 35 -11 0 6 9 10 20 10 27 0 27 -36 0 -50 -29 -15 -56 -4 -77
31 -10 17 -26 29 -38 29 -41 0 -60 45 -30 70 13 11 20 10 41 -1 23 -12 27 -11
40 6 8 10 14 30 14 43 0 23 -3 24 -40 18 -32 -5 -42 -3 -47 10 -8 22 22 44 59
44 37 0 78 -40 78 -76 0 -22 2 -25 15 -14 10 8 15 30 15 61 0 53 1 54 31 39z
m-567 -26 c13 -5 16 -24 16 -108 0 -95 1 -102 20 -102 19 0 20 7 20 103 0 57
4 103 9 103 37 0 41 -11 41 -115 l0 -102 25 5 c20 3 25 0 25 -17 0 -28 -25
-37 -63 -23 -18 7 -36 8 -46 2 -24 -12 -65 10 -69 38 -3 18 -7 20 -22 12 -46
-25 -130 48 -130 111 0 15 9 38 21 53 34 43 99 34 99 -14 0 -5 -15 -10 -32
-12 -31 -3 -33 -5 -33 -43 l0 -40 45 0 45 0 3 78 c2 42 5 77 7 77 2 0 10 -3
19 -6z m1334 -43 c2 -12 -4 -34 -14 -49 l-18 -27 -8 39 c-6 26 -4 43 3 53 16
19 33 11 37 -16z m-1118 -191 c8 -15 7 -27 -5 -51 -19 -36 -27 -32 -32 13 -6
56 15 78 37 38z"/>
<path d="M1888 2573 c6 -2 18 -2 25 0 6 3 1 5 -13 5 -14 0 -19 -2 -12 -5z"/>
<path d="M2310 2435 c0 -5 7 -16 16 -26 10 -11 20 -50 25 -101 5 -46 11 -88
13 -94 2 -6 1 -17 -4 -24 -4 -7 -4 -27 1 -45 5 -18 11 -73 14 -121 5 -91 7
-112 15 -129 16 -31 0 -166 -35 -297 -7 -27 -6 -28 29 -28 26 0 39 6 50 23 27
41 67 181 73 253 6 78 -5 114 -37 114 -18 0 -20 7 -19 58 1 31 4 68 8 82 9 33
-6 130 -23 150 -8 8 -21 32 -30 53 -15 38 -96 148 -96 132z m175 -602 c4 -19
3 -33 -3 -33 -11 0 -22 34 -22 70 1 32 14 10 25 -37z m-69 -79 c-4 -14 -9 -24
-12 -21 -3 2 -2 17 2 31 3 15 9 25 11 22 3 -3 2 -17 -1 -32z m44 -54 c-6 -11
-13 -20 -16 -20 -2 0 0 9 6 20 6 11 13 20 16 20 2 0 0 -9 -6 -20z m-44 -97
c-11 -11 -19 6 -11 24 8 17 8 17 12 0 3 -10 2 -21 -1 -24z"/>
<path d="M1690 2035 c-11 -13 -5 -15 41 -15 56 0 136 -31 146 -57 8 -20 -2
-26 -19 -10 -24 24 -56 37 -90 36 l-33 -1 30 -8 30 -8 -35 -3 c-19 -1 -44 -3
-56 -3 -11 -1 -29 -8 -38 -15 -17 -14 -16 -15 5 -23 15 -6 25 -5 30 4 6 9 12
8 27 -5 23 -21 51 -22 58 -2 8 21 36 19 32 -2 -2 -9 -18 -21 -36 -25 -19 -5
-32 -15 -32 -24 0 -13 6 -15 28 -9 34 8 92 44 92 56 0 5 9 9 20 9 14 0 20 7
20 21 0 58 -61 99 -147 99 -42 0 -64 -5 -73 -15z"/>
<path d="M2060 2013 c-48 -24 -55 -32 -58 -61 -2 -21 4 -43 20 -65 13 -17 22
-34 22 -37 -1 -3 1 -11 4 -18 2 -7 2 -30 -1 -51 l-5 -38 37 1 c35 1 36 0 36
-34 l0 -35 -50 0 c-39 0 -55 -5 -72 -22 l-22 -23 58 0 c93 0 121 8 121 37 0
30 -23 86 -50 120 -24 31 -26 47 -5 39 11 -4 7 5 -9 27 -13 17 -27 44 -31 58
-5 21 -2 27 15 32 12 3 19 10 16 15 -7 12 61 32 106 32 20 0 41 -7 48 -15 10
-12 9 -15 -5 -15 -14 0 -15 -3 -5 -15 11 -13 5 -15 -46 -15 -53 0 -56 1 -38
15 18 13 17 14 -16 15 -26 0 -31 -3 -20 -10 12 -8 12 -10 1 -10 -8 0 -11 -3
-7 -7 3 -4 -4 -13 -16 -21 -22 -12 -21 -13 16 -8 29 4 45 0 63 -14 19 -15 30
-17 44 -9 10 5 19 15 19 21 0 9 4 8 13 -1 10 -10 6 -17 -18 -37 l-30 -24 47 0
c38 0 46 -3 42 -15 -11 -28 5 -15 22 18 9 17 25 39 35 48 29 25 23 51 -23 96
-41 39 -47 41 -123 47 -75 6 -84 5 -135 -21z m264 -62 c32 -36 13 -31 -24 6
-20 20 -26 31 -15 25 11 -6 29 -20 39 -31z"/>
<path d="M1410 1986 c0 -8 -2 -23 -5 -33 -3 -11 -1 -9 6 5 7 12 16 22 21 22 4
0 8 5 8 10 0 6 -7 10 -15 10 -8 0 -15 -6 -15 -14z"/>
<path d="M1441 1874 c-12 -15 -21 -32 -21 -38 0 -18 49 -86 62 -86 6 0 4 8 -5
18 -21 23 -22 76 -2 96 8 8 15 19 15 25 0 20 -28 11 -49 -15z"/>
<path d="M1845 1870 c-3 -6 1 -7 9 -4 18 7 21 14 7 14 -6 0 -13 -4 -16 -10z"/>
<path d="M1401 1770 c0 -8 4 -24 9 -35 5 -13 9 -14 9 -5 0 8 -4 24 -9 35 -5
13 -9 14 -9 5z"/>
<path d="M1775 1720 c-3 -5 -1 -10 4 -10 6 0 11 5 11 10 0 6 -2 10 -4 10 -3 0
-8 -4 -11 -10z"/>
<path d="M1746 1683 c-6 -14 -5 -15 5 -6 7 7 10 15 7 18 -3 3 -9 -2 -12 -12z"/>
<path d="M1835 1680 c-4 -6 6 -10 22 -10 22 0 25 2 13 10 -19 12 -27 12 -35 0z"/>
<path d="M1692 1535 c0 -16 2 -22 5 -12 2 9 2 23 0 30 -3 6 -5 -1 -5 -18z"/>
<path d="M1906 1541 c-3 -4 -38 -7 -78 -6 l-73 2 -42 -46 c-57 -61 -54 -72 5
-22 54 46 62 48 98 25 13 -9 27 -14 31 -10 3 3 1 6 -5 6 -7 0 -12 5 -12 10 0
11 93 14 103 4 3 -4 -1 -14 -10 -23 -15 -15 -11 -16 55 -19 55 -2 78 1 98 15
27 17 27 17 15 -4 -9 -19 -8 -22 6 -21 10 0 26 -3 36 -7 20 -8 22 7 7 51 -8
22 -21 32 -50 42 -54 16 -105 15 -124 -3 -8 -8 -19 -15 -25 -15 -6 0 -11 7
-11 15 0 16 -16 20 -24 6z m122 -48 c6 -19 -21 -25 -54 -12 l-29 12 25 8 c33
10 52 7 58 -8z"/>
<path d="M2320 1495 c-44 -101 -52 -115 -70 -115 -13 0 -17 5 -13 21 3 11 1
30 -5 42 -6 12 -13 29 -15 37 -3 8 -6 -3 -7 -25 -6 -105 -21 -132 -94 -169
-50 -25 -64 -28 -154 -27 -54 1 -113 5 -130 10 -31 9 -44 0 -21 -15 11 -6 136
-14 227 -13 17 0 32 -5 32 -11 0 -5 5 -10 11 -10 5 0 8 4 5 9 -4 5 2 7 12 5
21 -6 86 42 101 74 9 18 14 20 24 11 9 -9 11 -30 6 -78 -6 -60 -10 -69 -44
-98 -20 -17 -65 -44 -101 -59 -35 -15 -64 -31 -64 -36 0 -11 5 -10 53 11 23
10 65 27 94 37 30 10 56 26 61 38 34 70 62 136 62 145 0 6 5 11 10 11 6 0 10
-5 10 -11 0 -8 4 -8 14 0 10 8 16 8 25 -3 13 -16 80 -26 87 -14 3 4 1 8 -4 8
-4 0 -31 20 -60 44 -28 24 -56 46 -62 48 -8 2 -2 31 15 82 30 90 28 124 -5 51z"/>
<path d="M1958 1433 c12 -2 32 -2 45 0 12 2 2 4 -23 4 -25 0 -35 -2 -22 -4z"/>
<path d="M2132 1376 c-1 -11 -8 -27 -16 -35 -7 -9 -17 -27 -21 -41 l-7 -25 27
26 c21 21 26 33 22 60 -2 19 -5 25 -5 15z"/>
<path d="M1588 1311 c8 -25 29 -77 48 -116 18 -38 37 -81 43 -95 10 -24 10
-24 4 4 -5 26 -4 29 17 23 22 -6 22 -6 -3 21 -32 34 -67 93 -67 112 0 37 -22
88 -38 92 -17 5 -18 3 -4 -41z"/>
<path d="M1732 1294 c10 -10 20 -16 22 -13 3 3 -5 11 -17 18 -21 13 -21 12 -5
-5z"/>
<path d="M2097 1188 c-16 -11 -47 -23 -70 -25 -55 -7 -73 -21 -53 -41 11 -11
12 -21 5 -41 -7 -17 -7 -22 0 -16 5 6 11 19 13 29 3 21 77 66 107 66 20 0 41
19 41 37 0 18 -10 16 -43 -9z"/>
<path d="M2782 860 c-17 -27 -15 -30 13 -30 27 0 34 20 12 38 -9 8 -16 6 -25
-8z"/>
<path d="M1886 689 c-15 -11 -26 -31 -26 -44 0 -28 26 -53 41 -38 8 8 7 13 0
17 -16 10 -13 47 6 68 22 24 12 23 -21 -3z"/>
<path d="M1940 654 c0 -8 5 -12 10 -9 6 3 10 10 10 16 0 5 -4 9 -10 9 -5 0
-10 -7 -10 -16z"/>
<path d="M3252 2725 c-79 -7 -145 -14 -147 -17 -2 -2 13 -29 34 -58 22 -30 65
-104 97 -164 l57 -109 84 173 c45 95 83 177 83 182 0 10 -22 9 -208 -7z"/>
<path d="M1014 2709 c-3 -6 20 -38 54 -73 53 -53 59 -63 48 -78 -11 -15 -18
-12 -76 33 -63 49 -84 57 -95 40 -8 -13 139 -131 163 -131 23 0 52 25 52 45 0
7 11 16 24 19 30 7 41 35 23 53 -12 12 -16 12 -29 -1 -13 -13 -22 -8 -74 45
-58 59 -77 69 -90 48z"/>
<path d="M2847 2698 c-2 -7 7 -23 22 -35 l26 -23 -24 -20 c-31 -27 -67 -23
-63 6 3 26 -20 47 -43 38 -14 -6 -16 -15 -12 -46 3 -21 0 -54 -6 -73 -12 -39
2 -65 34 -65 23 0 25 26 3 38 -11 6 -14 16 -9 31 9 28 16 27 49 -8 l29 -30
-28 -24 c-25 -21 -27 -27 -18 -53 10 -31 38 -43 57 -24 8 8 7 15 -7 24 -16 12
-11 19 53 70 38 31 70 61 70 66 0 20 -22 20 -49 1 -27 -20 -71 -29 -71 -15 0
3 11 15 25 26 31 24 35 86 7 111 -22 20 -39 22 -45 5z"/>
<path d="M900 2567 c-28 -14 -41 -57 -16 -57 8 0 18 9 21 20 9 27 41 25 71 -5
29 -29 28 -46 -4 -60 -31 -14 -27 -25 7 -25 81 0 77 92 -5 126 -40 17 -43 17
-74 1z"/>
<path d="M3006 2502 c-11 -10 -6 -42 7 -42 6 -1 -4 -8 -23 -16 -26 -11 -40
-13 -52 -5 -23 14 -50 -13 -46 -48 2 -20 8 -25 24 -24 14 2 25 -6 33 -24 6
-14 10 -27 9 -28 -2 -1 -13 -8 -25 -14 -27 -14 -31 -62 -7 -82 9 -8 13 -21 10
-35 -7 -25 18 -58 38 -51 6 2 10 16 9 30 -1 23 5 27 75 49 65 20 78 27 80 47
3 17 0 22 -10 19 -7 -3 -45 -16 -85 -28 -66 -22 -72 -22 -88 -7 -15 16 -11 20
64 55 65 30 80 41 81 60 0 27 3 27 -48 2 -52 -25 -56 -25 -70 5 -11 23 -9 26
27 44 38 20 50 40 43 72 -3 17 -36 32 -46 21z"/>
<path d="M367 2312 c-109 -36 -194 -68 -190 -72 4 -4 74 -66 155 -138 81 -73
149 -132 152 -132 2 0 8 21 11 48 12 78 43 207 70 284 14 39 25 73 25 75 0 8
-37 -3 -223 -65z"/>
<path d="M777 2363 c-14 -13 -5 -20 72 -57 63 -31 77 -42 74 -57 -7 -24 -16
-24 -88 1 -66 23 -88 19 -111 -15 -22 -34 -5 -59 53 -81 61 -22 81 -40 65 -56
-16 -16 -88 6 -105 32 -12 20 -47 28 -47 11 0 -25 16 -44 51 -61 48 -25 76
-25 117 0 56 35 38 73 -52 107 -27 10 -51 24 -54 32 -5 16 12 14 105 -17 55
-17 64 -18 83 -5 13 9 20 23 18 36 -2 13 6 29 19 40 24 19 30 51 13 62 -13 8
-42 -14 -34 -26 9 -15 -3 -11 -76 26 -70 35 -91 41 -103 28z"/>
<path d="M3320 2307 c0 -1 13 -54 30 -119 16 -64 32 -150 36 -192 4 -42 10
-76 14 -76 8 0 84 65 213 183 l89 81 -149 49 c-176 58 -233 76 -233 74z"/>
<path d="M3091 2156 c-33 -35 -25 -70 16 -76 25 -4 30 -8 23 -20 -8 -12 -14
-12 -45 3 -20 9 -44 17 -54 17 -47 0 -71 -88 -30 -110 24 -13 66 -5 91 17 15
14 20 13 51 -6 40 -25 63 -27 71 -6 4 10 -7 21 -35 35 l-40 21 25 30 c28 33
35 86 14 107 -20 20 -63 14 -87 -12z m43 -22 c20 -8 11 -24 -15 -24 -10 0 -19
7 -19 15 0 16 9 19 34 9z m-74 -109 c21 -12 23 -14 8 -20 -26 -10 -52 -2 -56
18 -4 20 14 21 48 2z"/>
<path d="M860 2019 c0 -19 -4 -21 -37 -15 -100 16 -140 18 -148 6 -11 -18 10
-27 99 -40 80 -11 81 -12 82 -40 2 -42 -30 -50 -61 -16 -25 28 -71 34 -105 16
-39 -21 -44 -119 -4 -103 11 4 14 14 10 34 -9 47 41 64 74 24 9 -11 9 -18 -4
-30 -18 -19 -19 -25 -7 -43 13 -21 44 -10 59 21 7 15 26 34 41 42 34 17 45 40
31 66 -8 14 -6 25 6 44 13 20 14 28 4 40 -18 22 -40 18 -40 -6z"/>
<path d="M2978 1903 c-35 -5 -36 -20 -4 -35 30 -13 59 -4 54 19 -3 19 -12 21
-50 16z"/>
<path d="M335 1754 c-77 -58 -149 -112 -159 -120 -11 -7 -17 -16 -14 -20 6 -5
356 -154 363 -154 2 0 -3 26 -11 58 -7 31 -18 118 -24 192 -6 74 -12 138 -13
142 -1 5 -65 -40 -142 -98z"/>
<path d="M3392 1704 c-6 -68 -19 -155 -28 -194 -9 -39 -13 -74 -10 -77 5 -5
342 133 359 147 4 3 -64 60 -151 126 l-158 120 -12 -122z"/>
<path d="M840 1797 c0 -7 5 -18 11 -24 8 -8 -13 -13 -80 -18 -75 -6 -94 -11
-102 -26 -11 -22 -11 -22 59 -19 52 2 52 2 52 -29 0 -28 -3 -31 -30 -31 -29 0
-80 -37 -80 -57 1 -38 53 -43 58 -5 3 17 10 22 33 22 16 0 29 -5 29 -10 0 -20
31 -22 50 -5 26 23 26 55 0 62 -14 4 -20 14 -20 34 0 24 4 29 25 29 29 0 49
32 41 66 -7 25 -46 35 -46 11z"/>
<path d="M3062 1695 c-21 -27 -72 -51 -72 -35 0 20 -23 9 -62 -29 -32 -33 -39
-46 -36 -73 2 -25 8 -34 25 -36 12 -2 25 -12 28 -23 9 -27 45 -25 45 2 0 17 5
20 23 16 96 -23 137 -29 151 -24 27 11 18 26 -24 37 -22 6 -44 19 -50 30 -10
18 -8 19 19 14 49 -10 80 3 98 41 13 27 14 37 4 49 -18 22 -39 9 -43 -27 -4
-39 -29 -46 -58 -17 l-22 22 23 24 c18 19 20 26 9 39 -18 22 -36 19 -58 -10z
m-8 -73 c-1 -6 -2 -25 -2 -41 -2 -27 -4 -28 -47 -27 -39 1 -45 4 -45 23 0 12
-5 23 -11 25 -7 2 -5 9 5 17 14 12 16 10 16 -13 0 -19 5 -26 20 -26 14 0 20 7
20 23 0 13 3 27 7 31 11 11 38 2 37 -12z"/>
<path d="M824 1572 c-10 -9 -32 -18 -49 -19 -17 0 -37 -10 -47 -23 -22 -27
-24 -76 -3 -83 19 -8 27 7 19 38 -5 20 -2 25 12 25 9 0 25 -7 35 -16 23 -21
41 -9 33 21 -5 20 -1 25 20 31 57 14 77 -50 28 -85 -36 -25 -106 -42 -145 -34
-34 7 -61 44 -52 73 4 11 2 20 -4 20 -15 0 -31 -35 -31 -69 0 -77 168 -83 248
-8 24 22 52 68 52 85 0 5 -11 21 -25 36 -28 30 -63 34 -91 8z"/>
<path d="M2997 1463 c-10 -10 -34 -22 -55 -28 -32 -9 -37 -15 -40 -44 -3 -27
0 -32 15 -29 10 2 19 13 21 26 3 21 7 23 32 26 6 1 18 -15 28 -34 20 -41 59
-58 99 -44 32 11 59 53 50 77 -9 25 -34 10 -41 -24 -6 -34 -34 -39 -59 -11
-22 24 -21 30 5 51 26 22 18 51 -15 51 -12 0 -31 -8 -40 -17z"/>
<path d="M498 1278 c-31 -45 -80 -117 -108 -158 -32 -47 -46 -76 -38 -77 15
-3 354 -33 368 -33 5 0 -12 34 -36 75 -37 61 -82 155 -122 258 -6 16 -18 3
-64 -65z"/>
<path d="M960 1341 c0 -11 5 -21 11 -23 6 -2 -31 -25 -81 -52 -98 -51 -120
-78 -120 -145 0 -57 55 -77 101 -35 8 8 19 14 23 14 4 0 27 14 51 31 44 32 65
32 65 0 0 -13 -10 -21 -32 -25 -41 -8 -58 -23 -58 -51 0 -49 66 -73 92 -33 9
14 25 22 43 23 37 0 43 22 11 36 -19 9 -26 20 -26 42 0 23 4 28 16 23 49 -19
64 -18 64 3 0 15 -10 23 -40 31 -35 9 -38 13 -28 29 15 24 2 68 -22 76 -11 4
-18 10 -15 15 3 5 1 20 -5 34 -12 31 -50 36 -50 7z m47 -90 c11 -17 5 -24 -57
-67 -39 -26 -70 -50 -70 -54 0 -3 -16 -12 -36 -19 -48 -17 -61 -4 -40 40 12
26 35 44 93 75 92 49 95 49 110 25z m-17 -188 c-1 -19 -16 -31 -29 -24 -7 5
-10 14 -7 20 8 12 36 15 36 4z"/>
<path d="M2883 1330 c-38 -15 -26 -26 30 -25 51 0 52 0 50 -29 -3 -45 -16 -50
-61 -25 -34 20 -44 21 -66 11 -28 -13 -34 -43 -12 -61 10 -8 16 -8 25 2 6 8 8
17 4 20 -17 17 14 4 76 -33 37 -22 75 -40 83 -40 30 0 29 18 -1 36 -28 16 -29
19 -17 43 27 52 28 69 7 90 -22 22 -77 27 -118 11z"/>
</g>
</svg>
